name rise49.25peak52.1432fall72.8391.mot
datacolumns 19
datarows 23
range 15.58493800000000 15.62160500000000
endheader
time	ground_force1_vx	ground_force1_vy	ground_force1_vz	ground_force1_px	ground_force1_py	ground_force1_pz	ground_force2_vx	ground_force2_vy	ground_force2_vz	ground_force2_px	ground_force2_py	ground_force2_pz	ground_torque1_x	ground_torque1_y	ground_torque1_z	ground_torque2_x	ground_torque2_y	ground_torque2_z	
15.58493800000000	-6.22300800000000	42.22416100000000	-10.35539600000000	0.32732600000000	0.00000000000000	0.07194900000000	-55.56397700000000	800.38121599999999	-55.28801900000000	0.10783800000000	0.00000000000000	-0.09840600000000	0.00000000000000	-6.95972100000000	0.00000000000000	0.00000000000000	-21.81717700000000	0.00000000000000	
15.58660500000000	-6.85020400000000	49.33581200000000	-11.64732000000000	0.33017300000000	0.00000000000000	0.07291000000000	-56.24891800000000	798.17282599999999	-54.94499600000000	0.10707600000000	0.00000000000000	-0.09829400000000	0.00000000000000	-7.87225700000000	0.00000000000000	0.00000000000000	-21.78201800000000	0.00000000000000	
15.58827200000000	-7.36450900000000	56.49639000000000	-12.82262700000000	0.33277800000000	0.00000000000000	0.07379700000000	-56.94730000000000	795.84299099999998	-54.58043900000000	0.10631200000000	0.00000000000000	-0.09817700000000	0.00000000000000	-8.71534600000000	0.00000000000000	0.00000000000000	-21.74813100000000	0.00000000000000	
15.58993800000000	-7.74818400000000	63.61036900000000	-13.85409700000000	0.33517800000000	0.00000000000000	0.07462200000000	-57.65858700000000	793.38871200000006	-54.19407600000000	0.10554600000000	0.00000000000000	-0.09805700000000	0.00000000000000	-9.47005500000000	0.00000000000000	0.00000000000000	-21.71547800000000	0.00000000000000	
15.59162200000000	-7.99011400000000	70.60649800000000	-14.72373700000000	0.33740100000000	0.00000000000000	0.07539300000000	-58.38214400000000	790.80691400000001	-53.78565700000000	0.10477800000000	0.00000000000000	-0.09793400000000	0.00000000000000	-10.12358900000000	0.00000000000000	0.00000000000000	-21.68400300000000	0.00000000000000	
15.59327200000000	-8.08576700000000	77.43986400000000	-15.42289800000000	0.33947300000000	0.00000000000000	0.07611600000000	-59.11723800000000	788.09444900000005	-53.35495400000000	0.10400800000000	0.00000000000000	-0.09780700000000	0.00000000000000	-10.66944300000000	0.00000000000000	0.00000000000000	-21.65363100000000	0.00000000000000	
15.59494300000000	-8.03661800000000	84.09144400000000	-15.95160900000000	0.34141400000000	0.00000000000000	0.07679800000000	-59.86303500000000	785.24810800000000	-52.90176700000000	0.10323600000000	0.00000000000000	-0.09767600000000	0.00000000000000	-11.10701500000000	0.00000000000000	0.00000000000000	-21.62426800000000	0.00000000000000	
15.59660600000000	-7.84918300000000	90.56560100000000	-16.31731800000000	0.34324000000000	0.00000000000000	0.07744300000000	-60.61859800000000	782.26462500000002	-52.42592500000000	0.10246300000000	0.00000000000000	-0.09754200000000	0.00000000000000	-11.44079200000000	0.00000000000000	0.00000000000000	-21.59580000000000	0.00000000000000	
15.59827400000000	-7.53381600000000	96.88608600000001	-16.53323400000000	0.34496700000000	0.00000000000000	0.07805600000000	-61.38289100000000	779.14068999999995	-51.92728700000000	0.10168900000000	0.00000000000000	-0.09740400000000	0.00000000000000	-11.67926400000000	0.00000000000000	0.00000000000000	-21.56809600000000	0.00000000000000	
15.59993500000000	-7.10339500000000	103.09113800000000	-16.61649600000000	0.34660700000000	0.00000000000000	0.07863900000000	-62.15477200000000	775.87295700000004	-51.40574900000000	0.10091500000000	0.00000000000000	-0.09726200000000	0.00000000000000	-11.83369400000000	0.00000000000000	0.00000000000000	-21.54100300000000	0.00000000000000	
15.60160400000000	-6.57203700000000	109.22825100000000	-16.58633000000000	0.34817000000000	0.00000000000000	0.07919600000000	-62.93300000000000	772.45805299999995	-50.86123800000000	0.10014100000000	0.00000000000000	-0.09711700000000	0.00000000000000	-11.91686800000000	0.00000000000000	0.00000000000000	-21.51435000000000	0.00000000000000	
15.60327100000000	-5.95393900000000	115.34907900000000	-16.46235900000000	0.34966500000000	0.00000000000000	0.07972800000000	-63.71623300000000	768.89259600000003	-50.29372300000000	0.09936700000000	0.00000000000000	-0.09696700000000	0.00000000000000	-11.94194300000000	0.00000000000000	0.00000000000000	-21.48794800000000	0.00000000000000	
15.60494100000000	-5.26241100000000	121.50487500000000	-16.26317100000000	0.35110000000000	0.00000000000000	0.08023900000000	-64.50302900000000	765.17320199999995	-49.70321400000000	0.09859400000000	0.00000000000000	-0.09681400000000	0.00000000000000	-11.92145600000000	0.00000000000000	0.00000000000000	-21.46158800000000	0.00000000000000	
15.60660600000000	-4.50915100000000	127.74272499999999	-16.00521200000000	0.35248200000000	0.00000000000000	0.08072900000000	-65.29185099999999	761.29650500000002	-49.08976100000000	0.09782400000000	0.00000000000000	-0.09665700000000	0.00000000000000	-11.86655300000000	0.00000000000000	0.00000000000000	-21.43504200000000	0.00000000000000	
15.60827400000000	-3.70376600000000	134.10272599999999	-15.70203800000000	0.35381600000000	0.00000000000000	0.08120100000000	-66.08106300000000	757.25916500000005	-48.45346200000000	0.09705500000000	0.00000000000000	-0.09649700000000	0.00000000000000	-11.78645100000000	0.00000000000000	0.00000000000000	-21.40806600000000	0.00000000000000	
15.60994400000000	-2.85354800000000	140.61616599999999	-15.36390900000000	0.35510600000000	0.00000000000000	0.08165600000000	-66.86894100000001	753.05789000000004	-47.79446100000000	0.09629000000000	0.00000000000000	-0.09633200000000	0.00000000000000	-11.68815000000000	0.00000000000000	0.00000000000000	-21.38039700000000	0.00000000000000	
15.61161500000000	-1.96345800000000	147.30464799999999	-14.99770800000000	0.35635800000000	0.00000000000000	0.08209400000000	-67.65367100000000	748.68944899999997	-47.11295100000000	0.09552800000000	0.00000000000000	-0.09616400000000	0.00000000000000	-11.57634600000000	0.00000000000000	0.00000000000000	-21.35175700000000	0.00000000000000	
15.61327500000000	-1.03629500000000	154.18007600000001	-14.60712700000000	0.35757400000000	0.00000000000000	0.08251800000000	-68.43335500000001	744.15069400000004	-46.40917500000000	0.09477100000000	0.00000000000000	-0.09599100000000	0.00000000000000	-11.45354700000000	0.00000000000000	0.00000000000000	-21.32184900000000	0.00000000000000	
15.61493900000000	-0.07300300000000	161.24532500000001	-14.19305600000000	0.35875800000000	0.00000000000000	0.08292700000000	-69.20601400000000	739.43857500000001	-45.68342800000000	0.09401900000000	0.00000000000000	-0.09581500000000	0.00000000000000	-11.32031900000000	0.00000000000000	0.00000000000000	-21.29036300000000	0.00000000000000	
15.61660700000000	0.92694400000000	168.49543399999999	-13.75410500000000	0.35991100000000	0.00000000000000	0.08332300000000	-69.96959699999999	734.55016400000000	-44.93606000000000	0.09327300000000	0.00000000000000	-0.09563500000000	0.00000000000000	-11.17563500000000	0.00000000000000	0.00000000000000	-21.25697300000000	0.00000000000000	
15.61826900000000	1.96510400000000	175.91912500000001	-13.28721300000000	0.36103500000000	0.00000000000000	0.08370600000000	-70.72197799999999	729.48266899999999	-44.16747200000000	0.09253300000000	0.00000000000000	-0.09545000000000	0.00000000000000	-11.01728300000000	0.00000000000000	0.00000000000000	-21.22134100000000	0.00000000000000	
15.61993900000000	3.04363500000000	183.50048799999999	-12.78825700000000	0.36213200000000	0.00000000000000	0.08407800000000	-71.46097200000000	724.23346300000003	-43.37812200000000	0.09180100000000	0.00000000000000	-0.09526200000000	0.00000000000000	-10.84228500000000	0.00000000000000	0.00000000000000	-21.18311700000000	0.00000000000000	
15.62160500000000	4.16489500000000	191.22066000000001	-12.25263700000000	0.36320300000000	0.00000000000000	0.08443700000000	-72.18433500000000	718.80009700000005	-42.56852200000000	0.09107600000000	0.00000000000000	-0.09507000000000	0.00000000000000	-10.64729100000000	0.00000000000000	0.00000000000000	-21.14193600000000	0.00000000000000	
